<svg xmlns="http://www.w3.org/2000/svg" viewBox="0 0 233.89 127.71"><title>flask</title><g id="Layer_2" data-name="Layer 2"><g id="Layer_3" data-name="Layer 3"><path d="M42.78,113.72c-5.45-4.29-11.27-8.4-15.24-14.19A115.15,115.15,0,0,1,8.33,65.06C5.67,57,4.75,48.32,1.32,40.55c-3.59-5.64.62-11.81,6.8-13.6,2.75-.53,7.59-3.13,1.75-1.27-5.24,3.84-5.74-3.49-.37-4,3.66-.49,5-3.48,3.76-6.18C9.32,13,22.79,10.17,16,6.34,9-1.28,25.89-2.75,21.71,5.91c-1,6.65,11.84-1.22,8.86,6.46,3,3.69,11.34.84,11.13,6,4.41.3,5.92,4,10.06,4.3C56,24.62,63.82,26.14,65.28,31,61,34.34,51.17,24,50.69,33.34c1.29,13.78,1,28,6,41.09,2.38,7.94,8.16,14.2,13.38,20.38,5,6.06,11.76,10.33,18.66,13.92a77,77,0,0,0,19.16,5.93c2.67-2,7.39-9.65,11.56-6.44.2,3.61-8.27,7.53-.4,7.13,4.63-1.4,7.84,3.58,11.65-.91,3.51,4.16,14.59-2.65,12.09,5.84-3.38,2.18-8.3.86-11.69,3.86-5.58-2.79-10,2.49-16.19,1.82a118.93,118.93,0,0,1-20.78,1.73c-11.41-.9-23.05-1.28-33.9-5.25-6.11-1.78-12.08-5.26-17.45-8.74Zm9.63,4.18c6,2.58,11.8,5.3,18.35,6.12,10.38,1.44,21.1,3.66,31.51,1.64-4.71-2.13-9.59.83-14.28-1.52-5.63,1.21-11.68-.31-17.4-1.06-6.51-2.9-13.54-4.89-19.63-8.66-7.62-2.78,3.94,3.57,6,4.09,4.76,2.7-5.24-1.39-6.65-2.51-4-2.24-4.5-1.77-.39.5.83.48,1.64,1,2.51,1.4Zm-11.36-8c5.79,2.14,0-4.07-2.67-3.71-1.17-2-4.49-3.32-2.15-4.42-4.2,1.46-4.4-5.55-6.38-4.54-4.45-1.4-1.73-6.38-7-9.43-.48-3.22-5.26-6-6.78-10.86-.67-2.49-5.4-9.62-2.5-3C16,80.31,20.36,85.79,24,91.26c2.81,5.21,6.13,10.65,11.24,13.9,1.73,1.66,3.39,4.19,5.82,4.71ZM24.39,91.57c.2-.87,1.06,1.89,0,0ZM48,112.43c1.28-.57-1.84-.72,0,0Zm3.14,1.14c-.32-1.58-1.43.88,0,0Zm3.93,1.64c1.87-1.78-2.89-1.12,0,0ZM61.79,119c1.14-1.68-3.64-.63,0,0Zm-12.93-9c2.9-1.88-3.76,0,0,0Zm2.95,1.47c-.08-1-1,.45,0,0Zm14.73,9.2c2.37,1.5,13.83,3.28,6.66.61-1.2.25-13.31-3.43-6.66-.61ZM43.15,102.4c-.23-1-3.68-1.1,0,0Zm6.86,4c1.79-1.25-3.7-1,0,0Zm5.77,3.54c2.56-1-4.15-1,0,0ZM40.35,99.36c2.78,2.13,11.21.27,4.26-1.27-3.16-1.69-10.29-2.84-5.43,1l1.18.26Zm19.33,11.8c1.16-2-4.86-1.13,0,0Zm-5.87-4.67c6.79,1.92-5.71-4.3-1.68-.71l.9.41.78.3Zm11.78,6.81c6.44.06-5.81-.89,0,0ZM37.88,95.64c-.25-1.2-1.59.1,0,0Zm38.59,23.77c.17-2.16-2.1,1.61,0,0Zm-27.61-17c-.39-1.14-2,0,0,0ZM38.49,94.89c3.69-.22-5.06-1.63,0,0ZM26.2,86.94c-.46-1.77-4-3.18,0,0Zm32.26,20.47c-.68-.77-.32.17,0,0Zm20.08,12.32c-.06-1.18-1.09.45,0,0ZM56.68,105.58c.36-1.52-3.15-.46,0,0Zm-15-9.48c2.75-.29-4.41-1.86,0,0ZM67,111.83c4.29-1.7-4.18-.83,0,0Zm-13.16-8.93c4.94.64-5.88-3.36-1.09-.36l1.09.36ZM71,113.44c4.61-2.75,3.09,6.45,7.82.78,4.67-3.41-4,4.21,1.72.61,4.16-2.78,10.3,1.32,14.18,2.65,2.79-.14,5.5,2.41,8.37.86,5.51-1.48-10.77-2.2-6.51-4.83-5,1.47-8.76-1.75-11.24-5-5.65-1.31-12.19-4.19-15-9.2-1.15-1.88,1.66.27-1-2.8-3.4-3-5.1-6.47-7.39-10.15-2.73-1.46-3.05-5.74-3.33-.14,0-3.54-3.3-5.92-4.11-4.93,0-3.4,3.55-1.7,1.06-4.22-.54-3.53-2.31-7.21-2.84-11.19-.83-1.92-.12-6-2.82-1.69-1,4.6-.33-5.65,1.21-2.27,2-3.44-.72-3-.83-2.56,1.31-2.91.83-7-.34-5.46.7-3.08,1.1-11.34-1-9.88,1.3-3.22,2.47-14.75-3.19-10.36a24,24,0,0,0-8.13,1.76c5.88,3.24-.59,1.17-3,.65-.31,3-2.68,1.7-5.64,1.73,4.73.59-2.3,4.84-5,3.19-3.53,1.68,3,5.89.07,7.19.37,2-5.4-.71-4.95,3.82-3.42-1.44-.47,5.37,1.24,3.06,5.82,1.58,4.1,5.16,4.24,8.57-.95,2-4.68-4.67-.83-4.36-3-4.93-3.36-1.78-5.88.51-.59.16,6.44,3.26,2,4.79,3.88.6,4,4,4.78,6.14,2.33,2.43,1.85-2.68,4.64.24-1.77-2.6-9.35-7.33-3.24-5.81,0-2.61-1.1-4.72.77-4.67,1.85-3.35-1.94,8.27,2.23,4,1.16-.5,1.44-3.36,3.52.27,3,3,1.09,5.12-3.17,2.4.76,2.59,5.69,3.51,4.76,7.55,1,3.55,2.36,2.24,3.56,2,.94,3.45,1.47.91,1.52-.73,4.3.92,3.29,3.47,4.64,5.24,3,1.34-4.25-9.07.85-3.13C50.1,83,46.76,85,42,84.23c3-.25,4,4.11,7.83,4,3.47,1.65,5.82,8-.16,5.35-2.07-1.87-9.42-4.18-3.42-.62,5.54,2.57,9.94,4.1,15.28,7.32C65.3,103,67,106.1,68.4,106.71c-3.21,1.54-9.68-1.23-4.88-2.07-3-.54-6.37-2.06-3.5,1.67,2.44,2,8.65,1.82,9.76,2.05-.94,2.08-2.56,2.24,0,2.4-2.9,1.55.93,1.79,1.2,2.67ZM65.09,96.69c-1.77-1.85-2.22-5.3-.31-2.3,1,.4,3.13,5.65.31,2.3ZM84.41,109c1.1-.07,0,.84,0,0Zm-22.1-16.8c-.07-2.79.64,2.15,0,0Zm-1.92-2.58c-2.22-4.29,2.8,1.21,0,0ZM37.12,73.52c1.31-.35.64,2.23,0,0Zm18.52,10c.8-3,.94,2.52,0,0Zm-13.08-9.1c-.92-1.66,1.93,1.56,0,0Zm11.23,3.6c-2.1-4.71,1.49-2.57.47.77l-.47-.77ZM34.42,65.15c-.94-1.55-2.49-6.08-2-7.47.45,2.26,4.79,9.7,2.13,3.09-2.94-5.55,3.52,1.8,4.19,3.18.31,1.38-1.82-.38-.38,2.85-2.63-3.68-1.55,2-3.94-1.66Zm-6-4.12c.25-3.59,1.37,2.46,0,0Zm2.69.93c1.28-2.71,2.18,3.78,0,0Zm-6.48-5c-2.23-2.22-3.84-4.26.11-1.38,1.52.06-3.38-4.64.37-1.49,3.93.72,1.94,6.45-.47,2.87Zm3.4-.09c1.29-1.28.69,1.26,0,0Zm2.1.67c-2-3.68,2.38,1.54,0,0Zm-4.16-4c-6.48-5.77,8.14,3,1.06,1.07L26,53.55ZM44.54,64.33c-2.8-1.68-.75-11.83.21-4.89,2.72-.88-.15,3.59,1.88,3.54-.32,2.82-1.23,3.83-2.09,1.35Zm6.86,4.06c.27-3.06.58,2.09,0,0Zm-1.19-1.18c.31-1.3,0,1.54,0,0Zm-23-15.55c-4.16-5.74,12.09,5.81,2.67,1.46-1-.26-2.17-.35-2.67-1.46Zm13.22,7c-.39-4.83.88.8,0,0Zm10,6.44c.78-2.75.06,1.82,0,0ZM27.89,49.46c2.47-.53,10.25,4.34,3.11,1.39-.79-.88-2.49-.48-3.11-1.39ZM49.13,60c.26-4.94,1.48-3,0,.71V60ZM29.73,47.74c1-1.48-2.68-6.68.53-1.87,1.39,1.1,4,1.84,1.69,2.31,3.65,3.21-.89.87-2.22-.44ZM48.08,58.5c.7-5.63.62,3.3,0,0Zm-20.45-16c.77-.33.41,1,0,0Zm4.79,2.85c1.23-2.59,2.27,2.88,0,0Zm13.5,7.51c0-1,.26,1.44,0,0Zm-.78-1.73c-1.87-4.62,1.74,2.45,0,0Zm-1.15-3c-.31-1.91,1.07,2.4,0,0Zm1.87-3c-1.29-2.26,1.62-10,1.95-5.2-1.36,3.73-.39,5.81.55.81,1.75-3.93-.38,7.77-2.5,4.38Zm1.92-11.48c.56-.69.12.83,0,0ZM44.56,96.92c-.76-.67.1.42,0,0Zm6.62,3.35c3.68.95,3.66-.57.34-1-1.79-1.66-7.44-3.43-2.38-.21.33.85,1.39.83,2,1.23ZM38.11,91.59c2,1.51,7.64,4.29,2.89.58,1.6-1.86-3.06-2.85-1.52-4.1-3.94-2.41-3.11-2.19-.35-2.12-4.73-2.12.68-2,.43-3-1.82-.36-9.07-3.22-4.81.23-4.33-2.21-1,.82-2.34.5-4.43-1.21,3.94,3.37-.7,2.23,2.54,2,6.83,5.16,1.07,2.13-.76,1.09,4.13,2.75,5.32,3.58Zm6.92,4c8.41,2.71-4.13-3.32,0,0ZM80.47,117c.11-1.67-1.15,1.43,0,0Zm3.64,1.53c1.94-1.88.08,3,3.22-.46,0-2.48-.09-3.94-3.6-.93-1,.54-1.4,2.82.39,1.39ZM26.3,82.26c-.6-2.34-4.18-2.33,0,0Zm3.89,2.55c-1.44-2.39-5.15-2.17,0,0ZM52.31,98.15c2.16,1.92,9.92,1.41,2.62.24-1.08-1.6-6.86-1.21-2.62-.24Zm30.41,18.78c3.32-2.79-3.22,1.24,0,0Zm6.92,4.75c0-.9-1.43.39,0,0Zm0-1.25c3.68-3.9-3.57.23,0,0ZM16.73,74.25c-3.14-4.48-1.95-6.49-5-10.14-.57-2.8-5.19-9.14-2.39-2.42,2.57,3.93,3.33,10,7.36,12.56Zm71.76,44.94c6.78-4.38-2.78-1.9,0,0Zm5.17,2c3.39-2.91-2.15-.61,0,0ZM25.14,77.31c1-1.44-2.51-.19,0,0Zm67.44,42.52c3.28-2.12-.76-1.79-.6.19l.6-.19ZM48,91.74c-.11-1.43-1.74.12,0,0Zm2.75,1.58c-.88-1.77-1.35.28,0,0Zm47.08,27.94c4.21-3-2.55-.58-.88.58l.88-.58Zm-1.61-.78c3.43-2.87-3.62,1.27,0,0Zm8.23,5.48c2.3-1.54-2.8-.5,0,0ZM27.25,76.27c3.08.69,12.33,7.59,6.87.48-2.79-.83-1.12-7.65-4-6.45,1.91,3.2,1.57,4.55-2.44,2.54-5-2.46-2.83,1.22-1.85,2.23-1.35.31,1.78,1.17,1.38,1.19ZM13.2,65.17c.55-2.29-5.09-12.56-2.66-5.15.87,1.55.78,4.5,2.66,5.15ZM39,81.07c-1.59-1.33-.08-.19,0,0ZM42.9,82c0-2.42-4.32-1,0,0Zm33.9,21.37c-.65-1.65-2.56,0,0,0Zm1.63,1.19c-.24-.92-.94.18,0,0ZM91.86,113c1.29-1-1.61-.12,0,0ZM20.22,67c3.7-1.43-4-1,0,0Zm53.6,33.77c0-2.39-2.36.6,0,0ZM18.76,63.56c2.37-.8-2.2-.53,0,0Zm6.89,3.34c0-.79-.73.3,0,0Zm84,51.54c3.05-.62,10,1.55,11.13-.81-3.71-.09-12.82-2.62-13.26.6l.81.13,1.31.08Zm-81.86-51c.06-2.42-1.89-.09,0,0ZM9.72,54.88c-.82-4.62-3.13-.7,0,0ZM14,56c.06-1.48-4-1.33,0,0Zm2.47,1.21c-.71-.58-.56.73,0,0ZM32,67.14c.73-.67-1.73-.5,0,0ZM14.87,54.44c-.42-3.49-5-.52,0,0ZM6,48.7c-.12-1.61-.86.61,0,0Zm1.32-1c-.22-1.91-1.13.24,0,0ZM14.61,52c3.08-1.21-5.61-2.5-.63-.23l.63.23ZM112,112.23c2-1.81-2.5-.56,0,0Zm11.77,6.1c.79-2.33-2,.31,0,0ZM15.35,48.23c.33-2.26-2.44.45,0,0ZM5,41.29c-.56-3.19-.48-8.79,4.84-6.9-7.1,1.41,4.92,8.83,3.4,3,3,.15,5.84-1.77,4.27,1.13,5.89-.65,10-5.75,15.65-5,4.43-.59,9.27-1,14-2.82,3.92-.28,7.7-4.51,5.55-7A60.7,60.7,0,0,0,35.89,25C29.33,26.39,23.38,29,16.77,30.09c-6.45.87,1.29,2.38-.55,2.72-3.36,1.17,4,2-.44,3.18-2.75-.52-5.61-1.47-4.43-4.36C5.18,32.45-.25,35,4.63,41.29Zm14.88-7.58c1.44-5.33,7.75,4.39,2.37.71a3.35,3.35,0,0,0-2.37-.71Zm.28-2.59c2.09-1.55,1.11.87,0,0Zm2.65,0c.19-2.45,6.07,1.3,1,.88l-1-.88Zm3.63-1.46c1.33-1.55.38,1.37,0,0Zm.93-.62c2.21-2.65,12.49-1.69,5-.26-2-1.52-3.56.9-5,.26ZM40.79,27c-.33-7.24,6.67,2.57,0,0Zm3.81,0c1.39-3.65,5.41-1.47.65-.73.1.39-.14,1.89-.65.73ZM13.85,46.36c4.16-2.55-4.42-2.21,0,0Zm3.08.85c1.46-1.55-3.17-.63,0,0ZM7.86,40.78c2.38-1.83-2.82-.69,0,0Zm122.89,76.88c.07-2.12-1.82,1,0,0Zm-12.49-8.52c.35-2.44-1.61.21,0,0Zm15.92,9.35c3.32,0,10.07-1,2.84-1-1.14.18-6.61.14-2.84,1ZM19.63,45.72c2.69-.18,4.21-3-.52-2.81-7.33-.76,6.47,2.51-.94,1.58-1,.66,1.4,1.42,1.46,1.23ZM22,46.92c-.28-1.73-.83.92,0,0Zm2.81-7.5c1.17-1.45-1.62-.39,0,0Zm-9-15c4.81-1.63,11.37-3.47,13.64.81-2.31-2.78-.93-5.51,1.25-1.45,3.08,4.11,4.63-1.87,2.62-3.25,2.29,2.84,4.88,4.18,1.53.18,3.65-4.38-7.3.57-9.78.52-1.2.54-12.35,2.84-9.26,3.19Zm2.82-5.39C21.42,17,28.15,20.3,23.83,17c-.42-.37-9.46,2.49-5.15,2.06Zm10,.41c3.2.08-1.38-4.31,2.44-2.32-.63-2-4.45-2.43-6.32-3.25-1.06,1.87,2.15,5.59,3.88,5.57Zm-8.23-9.07c1.11-1.5-1.95.76,0,0Zm4.08,1c5.17-.68-1.32-2.22-1-.05l1,.05Zm-7.62-6C13.25.68,23.73,6.23,20,1.26,16.92-1.22,13.94,4,16.89,5.43ZM63.57,30.57c1.67-3-6.89-4-1.12-1,.53.18.41,1.25,1.12,1Z"/><path d="M120.67,38.59a37.5,37.5,0,0,0-.68,7.34q0,1-.91,1a1.28,1.28,0,0,1-1.27-.88,11.52,11.52,0,0,0-1.86-3.33,4.47,4.47,0,0,0-2.77-1.34,83.13,83.13,0,0,0-9.26-.29,4.44,4.44,0,0,0-2.22.36q-.33.23-.33,1V57.2c0,.5.31.74.94.72q2.9,0,8.41-.39a1.91,1.91,0,0,0,1.45-.7,9.33,9.33,0,0,0,.73-3,1.11,1.11,0,0,1,1.53-1c.74.15,1.06.49.95,1a48.15,48.15,0,0,0-.59,11.54c0,.56-.33.87-1.08.91s-1-.26-1.14-1q-.85-4.07-3.14-4.35a71,71,0,0,0-7.48-.28c-.39,0-.59.14-.59.42V75.82a2.23,2.23,0,0,0,1.2,2.22,14.69,14.69,0,0,0,4.08.88c1.07.11,1.53.58,1.4,1.4s-1.09,1-2.87.85a61,61,0,0,0-12.75.07q-1.4.19-1.4-1.14,0-.85,1.4-1,3.19-.36,3.19-5.61V45.59a6,6,0,0,0-.77-3.31A6.59,6.59,0,0,0,92,40.18q-1.3-.59-1-1.6c.11-.41.28-.64.52-.68a5.51,5.51,0,0,1,1.73.13,84,84,0,0,0,9.68.33q9,0,15.55-.39,2.18-.13,2.18.36a1,1,0,0,1,0,.26Z"/><path d="M141.81,80q0,1.3-1.47,1.14a64.72,64.72,0,0,0-11.15.13,3.44,3.44,0,0,1-1.65-.06c-.21-.13-.31-.49-.31-1.08s.59-1,1.78-1.32,1.78-1.43,1.78-3.21V46.07a7.61,7.61,0,0,0-.77-3.88,5,5,0,0,0-2.69-1.92q-1-.36-1-1,0-1,1.47-1.47a20.53,20.53,0,0,0,4.6-2.22,7.57,7.57,0,0,1,2.48-1.17q1.21,0,1.21,1.66,0-.13-.13,3.26-.09,3.23-.06,6.36L136,74.79a3.75,3.75,0,0,0,1,2.89,6.1,6.1,0,0,0,3.36,1.19q1.47.16,1.47,1.11Z"/><path d="M171.3,78q0,.69-2.49,2.07a9,9,0,0,1-4,1.39,2.83,2.83,0,0,1-2.25-1.24q-1-1.24-1.37-1.24a20.37,20.37,0,0,0-3.1,1.34,13,13,0,0,1-5.64,1.34A6.56,6.56,0,0,1,148,80.14a6,6,0,0,1-2-4.7q0-5.64,12.91-8.08c1.48-.28,2.23-.88,2.25-1.79l.07-2.09q.2-5.35-4.73-5.35-1.4,0-2.66,2.51a4.35,4.35,0,0,1-3.6,2.71q-2.67.26-2.67-2.25,0-1.57,4-3.65a17.31,17.31,0,0,1,8-2.18q6.62,0,6.55,6.29L166,75q0,2.12,1.79,2.12a10.47,10.47,0,0,0,1.37-.16q1-.16,1.18-.16c.63,0,.94.43.94,1.27Zm-10-7.43c0-.54-.1-.9-.38-1.08a1.82,1.82,0,0,0-1.29-.1q-7.86,1.4-7.86,5.12t4.08,3.75a9.93,9.93,0,0,0,3.36-.62q2-.72,2-1.73Z"/><path d="M195.54,74.3a6.57,6.57,0,0,1-2.66,5.49,11.64,11.64,0,0,1-7.25,2,29.37,29.37,0,0,1-6.13-.65,7.44,7.44,0,0,1-3.07-1.08,18.14,18.14,0,0,1-.26-4.47q0-1.73.78-1.79t1.34.85Q180.74,79,186.18,79q4.59,0,4.6-3.2a3,3,0,0,0-1-2.35,16.7,16.7,0,0,0-4.43-2.51,22.77,22.77,0,0,1-6.36-3.72,6.1,6.1,0,0,1-1.73-4.56,6.37,6.37,0,0,1,2.71-5.48,10.89,10.89,0,0,1,6.72-1.89,25.35,25.35,0,0,1,4.83.42q2.35.42,2.45,1,.26,1.82,1.08,5.28c.07.28-.24.51-.91.68s-1.2,0-1.44-.36q-2.57-4.21-6.52-4.21-4.47,0-4.47,2.87a3.06,3.06,0,0,0,1.21,2.54,30.46,30.46,0,0,0,5.05,2.54,20.5,20.5,0,0,1,5.67,3.23,6.56,6.56,0,0,1,2,5Z"/><path d="M233.89,80q0,1.14-1.53,1.21-2.28,0-6,.33a2.73,2.73,0,0,1-2.61-.45A67.61,67.61,0,0,1,215,69.47a.86.86,0,0,0-.75-.52,4.36,4.36,0,0,0-1.92,1,2.64,2.64,0,0,0-1.53,2.41q0,1.11.07,3.2t1,2.74a8.41,8.41,0,0,0,3.16.72q1.53.2,1.53,1.14,0,.75-.24.93a2.36,2.36,0,0,1-1.29.08,75,75,0,0,0-11,.33q-2,.16-2.12-.49a2.52,2.52,0,0,1-.07-.65q0-1,2-1.53,1.79-.46,1.79-4.21V46.1a9.14,9.14,0,0,0-.52-3.72,5,5,0,0,0-3-2.09c-.72-.24-1.08-.57-1.08-1q0-.95,1.53-1.47a20.44,20.44,0,0,0,4.66-2.25,7.07,7.07,0,0,1,2.22-1.17q1.34,0,1.34,1.7,0-.23,0,3.23,0,2.38,0,6.39l.07,20.41c0,.57.15.85.45.85a3,3,0,0,0,1.5-.85q2.71-2.12,6.65-5.54a2.25,2.25,0,0,0,.78-1.3q0-.88-2.64-1.24a1.08,1.08,0,0,1-1.08-1.27q.1-1.14,1.14-1a56.77,56.77,0,0,0,6.85.36q3.13,0,6.23,0c.67,0,1,.42,1,1.21s-.53,1.14-1.6,1.21a12,12,0,0,0-4.73,1.14,23.42,23.42,0,0,0-6.62,4.92.6.6,0,0,0-.26.49,6.51,6.51,0,0,0,1.11,2.19,46.37,46.37,0,0,0,7.69,9.36,6.88,6.88,0,0,0,4.34,2,4.71,4.71,0,0,1,1.86.21c.24.14.36.52.36,1.12Z"/></g></g></svg>